# xmcd
#
# Track frame offsets:
#	150
#	13255
#	26006
#	55789
#	85004
#	98873
#	114098
#	135881
#	152873
#	176198
#	197981
#	214978
#
# Disc length: 3035 seconds
#
# Revision: 1
# Processed by: cddbd v1.5.2PL0 Copyright (c) Steve Scherf et al.
# Submitted via: audiograbber 1.83.01
#
DISCID=9d0bd90c
DTITLE=Groza - Gecmisin Kasvetli Izleri
DYEAR=2007
DGENRE=Black Metal
TTITLE0=Intro
TTITLE1=Gecmisin Kasvetli Izleri
TTITLE2=Sayisiz Günler Kalmis Geride
TTITLE3=Fisiltilar seni Söyler
TTITLE4=Kayboldum
TTITLE5=Kisirdöngünün Icinde
TTITLE6=Geride Kalan Yillarim
TTITLE7=Ruhumdan Taneler Savruldu
TTITLE8=Mucizeyi Arama
TTITLE9=Geride Kalan Yillarim (Eng. Version)
TTITLE10=Ruhumdan Taneler Savruldu (Ger. Version)
TTITLE11=Gecmisin Kasvetli Izleri (Eng. Version)
EXTD=
EXTT0=
EXTT1=
EXTT2=
EXTT3=
EXTT4=
EXTT5=
EXTT6=
EXTT7=
EXTT8=
EXTT9=
EXTT10=
EXTT11=
PLAYORDER=
